<?xml version="1.0" encoding="iso-8859-1"?>
<!-- Generator: Adobe Illustrator 19.0.0, SVG Export Plug-In . SVG Version: 6.00 Build 0)  -->
<svg version="1.1" id="Layer_1" xmlns="http://www.w3.org/2000/svg" xmlns:xlink="http://www.w3.org/1999/xlink" x="0px" y="0px"
	 viewBox="0 0 512 512" style="enable-background:new 0 0 512 512;" xml:space="preserve">
<rect x="10.199" y="10.199" style="fill:#FFAD61;" width="491.602" height="491.602"/>
<g>
	<path style="fill:#534741;" d="M501.801,0H10.199C4.567,0,0,4.566,0,10.199v491.602C0,507.434,4.567,512,10.199,512h491.602
		c5.632,0,10.199-4.566,10.199-10.199V10.199C512,4.566,507.433,0,501.801,0z M144.489,245.801V144.829h223.022v100.972H144.489z
		 M367.511,388.25v103.352H144.489V388.25H367.511z M20.398,367.852V266.199H246.14v101.652H20.398z M20.398,245.801V144.829
		h103.692v100.972H20.398z M387.909,144.829h103.692v100.972H387.909V144.829z M491.602,124.43H266.539V20.398h225.063V124.43z
		 M246.14,20.398V124.43H20.398V20.398H246.14z M20.398,388.25h103.692v103.352H20.398V388.25z M387.909,491.602V388.25h33.318
		c5.632,0,10.199-4.566,10.199-10.199s-4.567-10.199-10.199-10.199H266.539V266.199h225.063v225.402H387.909z"/>
	<path style="fill:#534741;" d="M464.064,367.852h-6.12c-5.632,0-10.199,4.566-10.199,10.199s4.567,10.199,10.199,10.199h6.12
		c5.632,0,10.199-4.566,10.199-10.199S469.696,367.852,464.064,367.852z"/>
</g>
<g>
</g>
<g>
</g>
<g>
</g>
<g>
</g>
<g>
</g>
<g>
</g>
<g>
</g>
<g>
</g>
<g>
</g>
<g>
</g>
<g>
</g>
<g>
</g>
<g>
</g>
<g>
</g>
<g>
</g>
</svg>
