<?xml version="1.0" encoding="utf-8"?><svg version="1.1" id="Layer_1" xmlns="http://www.w3.org/2000/svg" xmlns:xlink="http://www.w3.org/1999/xlink" x="0px" y="0px" viewBox="0 0 118.89 122.88" style="enable-background:new 0 0 118.89 122.88" xml:space="preserve"><style type="text/css">.st0{fill:#262626;} .st1{fill-rule:evenodd;clip-rule:evenodd;fill:#F9E966;} .st2{fill-rule:evenodd;clip-rule:evenodd;fill:#262626;}</style><g><path class="st0" d="M61.44,0c11.77,0,22.8,3.33,32.17,9.11c9.67,5.96,17.57,14.52,22.7,24.71l2.06,4.08l-46.71,22.8l47.23,22.98 l-1.9,4.02c-5,10.56-12.93,19.48-22.74,25.69c-9.5,6.02-20.76,9.5-32.81,9.5c-16.97,0-32.33-6.88-43.44-18 C6.88,93.77,0,78.4,0,61.44C0,44.47,6.88,29.11,18,18C29.11,6.88,44.47,0,61.44,0L61.44,0z"/><path class="st1" d="M61.44,4.51c22.23,0,41.48,12.75,50.86,31.33L61.38,60.69l51.54,25.07c-9.12,19.27-28.74,32.6-51.48,32.6 C30,118.37,4.51,92.88,4.51,61.44S30,4.51,61.44,4.51L61.44,4.51z"/><path class="st2" d="M60.25,21.99c4.3,0,7.79,3.49,7.79,7.79c0,4.3-3.49,7.79-7.79,7.79c-4.3,0-7.79-3.49-7.79-7.79 C52.45,25.48,55.94,21.99,60.25,21.99L60.25,21.99z"/></g></svg>